<svg version="1.1" viewBox="0.0 0.0 960.0 540.0" fill="none" stroke="none" stroke-linecap="square" stroke-miterlimit="10" xmlns:xlink="http://www.w3.org/1999/xlink" xmlns="http://www.w3.org/2000/svg"><clipPath id="p.0"><path d="m0 0l960.0 0l0 540.0l-960.0 0l0 -540.0z" clip-rule="nonzero"/></clipPath><g clip-path="url(#p.0)"><path fill="#000000" fill-opacity="0.0" d="m0 0l960.0 0l0 540.0l-960.0 0z" fill-rule="evenodd"/><path fill="#434343" d="m0.010498688 17.463148l0 0c0 -9.635933 7.811467 -17.4474 17.447401 -17.4474l925.1052 0c4.6273193 0 9.0651245 1.838203 12.337158 5.110225c3.2720337 3.2720218 5.1102295 7.7098365 5.1102295 12.337175l0 505.10522c0 9.635925 -7.8114624 17.447388 -17.447388 17.447388l-925.1052 0c-9.635933 0 -17.447401 -7.8114624 -17.447401 -17.447388z" fill-rule="evenodd"/><path stroke="#999999" stroke-width="2.0" stroke-linejoin="round" stroke-linecap="butt" d="m0.010498688 17.463148l0 0c0 -9.635933 7.811467 -17.4474 17.447401 -17.4474l925.1052 0c4.6273193 0 9.0651245 1.838203 12.337158 5.110225c3.2720337 3.2720218 5.1102295 7.7098365 5.1102295 12.337175l0 505.10522c0 9.635925 -7.8114624 17.447388 -17.447388 17.447388l-925.1052 0c-9.635933 0 -17.447401 -7.8114624 -17.447401 -17.447388z" fill-rule="evenodd"/><path fill="#000000" fill-opacity="0.0" d="m0.010498688 46.015747l960.0 0" fill-rule="evenodd"/><path stroke="#999999" stroke-width="2.0" stroke-linejoin="round" stroke-linecap="butt" d="m0.010498688 46.015747l960.0 0" fill-rule="evenodd"/><path fill="#b7b7b7" d="m876.6693 23.906677l0 0c0 -4.357395 3.5323486 -7.889763 7.8897705 -7.889763l0 0c2.0924683 0 4.099243 0.8312397 5.5788574 2.3108578c1.4796143 1.4796181 2.310852 3.4864101 2.310852 5.578905l0 0c0 4.357397 -3.5323486 7.889765 -7.8897095 7.889765l0 0c-4.357422 0 -7.8897705 -3.5323677 -7.8897705 -7.889765z" fill-rule="evenodd"/><path fill="#b7b7b7" d="m900.6693 23.906677l0 0c0 -4.357395 3.5323486 -7.889763 7.8897705 -7.889763l0 0c2.0924683 0 4.099243 0.8312397 5.5788574 2.3108578c1.4796143 1.4796181 2.310852 3.4864101 2.310852 5.578905l0 0c0 4.357397 -3.5323486 7.889765 -7.8897095 7.889765l0 0c-4.357422 0 -7.8897705 -3.5323677 -7.8897705 -7.889765z" fill-rule="evenodd"/><path fill="#b7b7b7" d="m924.6693 23.906677l0 0c0 -4.357395 3.5323486 -7.889763 7.8897705 -7.889763l0 0c2.0924683 0 4.099243 0.8312397 5.5788574 2.3108578c1.4796143 1.4796181 2.310852 3.4864101 2.310852 5.578905l0 0c0 4.357397 -3.5323486 7.889765 -7.8897095 7.889765l0 0c-4.357422 0 -7.8897705 -3.5323677 -7.8897705 -7.889765z" fill-rule="evenodd"/><path fill="#b7b7b7" d="m36.669292 87.90668l0 0c0 -4.357399 3.5323677 -7.889763 7.889763 -7.889763l0 0c2.092495 0 4.099289 0.8312378 5.578907 2.3108597c1.4796143 1.4796143 2.3108559 3.4864044 2.3108559 5.578903l0 0c0 4.357399 -3.5323677 7.889763 -7.889763 7.889763l0 0c-4.357395 0 -7.889763 -3.532364 -7.889763 -7.889763z" fill-rule="evenodd"/><path fill="#b7b7b7" d="m36.669292 127.90668l0 0c0 -4.357399 3.5323677 -7.889763 7.889763 -7.889763l0 0c2.092495 0 4.099289 0.8312378 5.578907 2.3108597c1.4796143 1.4796143 2.3108559 3.4864044 2.3108559 5.578903l0 0c0 4.3573914 -3.5323677 7.8897705 -7.889763 7.8897705l0 0c-4.357395 0 -7.889763 -3.5323792 -7.889763 -7.8897705z" fill-rule="evenodd"/><path fill="#b7b7b7" d="m128.57504 81.25822c-0.22740173 0 -0.47143555 0.053894043 -0.7321167 0.1616745l-14.614555 6.207321c-0.5588989 0.24575043 -0.9790573 0.5569153 -1.2604904 0.9334717c-0.2814331 0.37656403 -0.42214203 0.8462753 -0.42214203 1.4091339c0 1.1415787 0.56087494 1.944252 1.6826324 2.4080124l14.614555 6.1716537c0.26457214 0.10938263 0.5119934 0.16408539 0.74227905 0.16408539c0.12852478 0 0.25172424 -0.017044067 0.36956787 -0.051116943c0.32899475 -0.099098206 0.5906067 -0.2814331 0.7848358 -0.5470047c0.19422913 -0.2695465 0.30323792 -0.5688095 0.3270111 -0.89780426c0.027755737 -0.32899475 -0.03765869 -0.64411926 -0.19619751 -0.9453659c-0.15855408 -0.30522156 -0.4459381 -0.54304504 -0.86213684 -0.7134857l-13.225182 -5.555771l13.225182 -5.5508194c0.41619873 -0.1704483 0.70358276 -0.4082718 0.86213684 -0.7134857c0.15853882 -0.30521393 0.22395325 -0.6282654 0.19619751 -0.96915436c-0.023773193 -0.34088135 -0.13278198 -0.64411163 -0.3270111 -0.90969086c-0.19422913 -0.26953888 -0.45584106 -0.45187378 -0.7848358 -0.5470047c-0.12095642 -0.03643036 -0.24752808 -0.054649353 -0.37973022 -0.054649353z" fill-rule="evenodd"/><path fill="#b7b7b7" d="m151.36533 72.9635c-0.33815002 0 -0.66075134 0.10359192 -0.96780396 0.3107605c-0.32899475 0.21800995 -0.5668335 0.5588989 -0.7134857 1.0226669l-8.436966 26.190857c-0.14666748 0.48754883 -0.15260315 0.9077072 -0.017837524 1.2604904c0.13476562 0.35277557 0.3607025 0.62628174 0.67781067 0.82050323c0.31710815 0.19422913 0.6639404 0.2913437 1.0404968 0.2913437c0.3765564 0 0.72340393 -0.10305786 1.0404968 -0.3091812c0.31710815 -0.20611572 0.548996 -0.5410538 0.6956482 -1.0048218l8.436966 -26.226532c0.14666748 -0.48754883 0.15260315 -0.9017639 0.017837524 -1.2426529c-0.13476562 -0.34088898 -0.3607025 -0.6084442 -0.67781067 -0.80267334c-0.31710815 -0.1942215 -0.6579895 -0.29727936 -1.0226593 -0.30917358c-0.024307251 -0.0010604858 -0.048538208 -0.0015869141 -0.07269287 -0.0015869141z" fill-rule="evenodd"/><path fill="#b7b7b7" d="m165.82722 81.25822c-0.13275146 0 -0.25959778 0.018218994 -0.3805542 0.054649353c-0.32899475 0.09513092 -0.5906067 0.27746582 -0.7848358 0.5470047c-0.19421387 0.26557922 -0.30322266 0.5688095 -0.3270111 0.90969086c-0.023773193 0.34088898 0.049545288 0.6639404 0.22000122 0.96915436c0.17044067 0.30521393 0.44989014 0.5430374 0.83833313 0.7134857l13.230133 5.5508194l-13.230133 5.555771c-0.388443 0.17044067 -0.66789246 0.40826416 -0.83833313 0.7134857c-0.17045593 0.30124664 -0.24377441 0.61637115 -0.22000122 0.9453659c0.023788452 0.32899475 0.13279724 0.6282654 0.3270111 0.89780426c0.19422913 0.2655716 0.45584106 0.4479065 0.7848358 0.5470047c0.11785889 0.034072876 0.24130249 0.051116943 0.3703308 0.051116943c0.23120117 0 0.48036194 -0.05470276 0.74746704 -0.16408539l14.608612 -6.1716537c0.5628662 -0.24179077 0.98301697 -0.5628586 1.260498 -0.96320343c0.28141785 -0.4043045 0.4221344 -0.88591003 0.4221344 -1.444809c0 -1.097969 -0.56088257 -1.8788452 -1.6826324 -2.3426056l-14.608612 -6.207321c-0.2631836 -0.10778046 -0.5089264 -0.1616745 -0.73724365 -0.1616745z" fill-rule="evenodd"/><path fill="#b7b7b7" d="m36.669292 167.90668l0 0c0 -4.3573914 3.5323677 -7.8897705 7.889763 -7.8897705l0 0c2.092495 0 4.099289 0.83125305 5.578907 2.3108673c1.4796143 1.4796143 2.3108559 3.4864044 2.3108559 5.578903l0 0c0 4.3573914 -3.5323677 7.8897705 -7.889763 7.8897705l0 0c-4.357395 0 -7.889763 -3.5323792 -7.889763 -7.8897705z" fill-rule="evenodd"/><path fill="#b7b7b7" d="m36.669292 207.90668l0 0c0 -4.3573914 3.5323677 -7.8897705 7.889763 -7.8897705l0 0c2.092495 0 4.099289 0.83125305 5.578907 2.3108673c1.4796143 1.4796143 2.3108559 3.4864044 2.3108559 5.578903l0 0c0 4.3573914 -3.5323677 7.8897705 -7.889763 7.8897705l0 0c-4.357395 0 -7.889763 -3.5323792 -7.889763 -7.8897705z" fill-rule="evenodd"/><path fill="#b7b7b7" d="m36.669292 247.90668l0 0c0 -4.3573914 3.5323677 -7.8897705 7.889763 -7.8897705l0 0c2.092495 0 4.099289 0.83125305 5.578907 2.3108673c1.4796143 1.4796143 2.3108559 3.4864044 2.3108559 5.578903l0 0c0 4.3573914 -3.5323677 7.8897705 -7.889763 7.8897705l0 0c-4.357395 0 -7.889763 -3.5323792 -7.889763 -7.8897705z" fill-rule="evenodd"/><path fill="#b7b7b7" d="m36.669292 287.90668l0 0c0 -4.3573914 3.5323677 -7.8897705 7.889763 -7.8897705l0 0c2.092495 0 4.099289 0.8312378 5.578907 2.310852c1.4796143 1.4796448 2.3108559 3.4864197 2.3108559 5.5789185l0 0c0 4.3573914 -3.5323677 7.8897705 -7.889763 7.8897705l0 0c-4.357395 0 -7.889763 -3.5323792 -7.889763 -7.8897705z" fill-rule="evenodd"/><path fill="#b7b7b7" d="m36.669292 327.90668l0 0c0 -4.3573914 3.5323677 -7.8897705 7.889763 -7.8897705l0 0c2.092495 0 4.099289 0.8312378 5.578907 2.310852c1.4796143 1.4796448 2.3108559 3.4864197 2.3108559 5.5789185l0 0c0 4.3573914 -3.5323677 7.8897705 -7.889763 7.8897705l0 0c-4.357395 0 -7.889763 -3.5323792 -7.889763 -7.8897705z" fill-rule="evenodd"/><path fill="#b7b7b7" d="m36.669292 367.90668l0 0c0 -4.3573914 3.5323677 -7.8897705 7.889763 -7.8897705l0 0c2.092495 0 4.099289 0.8312378 5.578907 2.310852c1.4796143 1.4796448 2.3108559 3.4864197 2.3108559 5.5789185l0 0c0 4.3573914 -3.5323677 7.8897705 -7.889763 7.8897705l0 0c-4.357395 0 -7.889763 -3.5323792 -7.889763 -7.8897705z" fill-rule="evenodd"/><path fill="#b7b7b7" d="m36.669292 407.90668l0 0c0 -4.3573914 3.5323677 -7.8897705 7.889763 -7.8897705l0 0c2.092495 0 4.099289 0.8312378 5.578907 2.310852c1.4796143 1.4796448 2.3108559 3.4864197 2.3108559 5.5789185l0 0c0 4.3573914 -3.5323677 7.8897705 -7.889763 7.8897705l0 0c-4.357395 0 -7.889763 -3.5323792 -7.889763 -7.8897705z" fill-rule="evenodd"/><path fill="#b7b7b7" d="m36.669292 447.90668l0 0c0 -4.3573914 3.5323677 -7.8897705 7.889763 -7.8897705l0 0c2.092495 0 4.099289 0.8312378 5.578907 2.310852c1.4796143 1.4796448 2.3108559 3.4864197 2.3108559 5.5789185l0 0c0 4.3573914 -3.5323677 7.8897705 -7.889763 7.8897705l0 0c-4.357395 0 -7.889763 -3.5323792 -7.889763 -7.8897705z" fill-rule="evenodd"/><path fill="#b7b7b7" d="m36.669292 487.90668l0 0c0 -4.3573914 3.5323677 -7.8897705 7.889763 -7.8897705l0 0c2.092495 0 4.099289 0.8312378 5.578907 2.310852c1.4796143 1.4796448 2.3108559 3.4864197 2.3108559 5.5789185l0 0c0 4.3573914 -3.5323677 7.8897705 -7.889763 7.8897705l0 0c-4.357395 0 -7.889763 -3.5323792 -7.889763 -7.8897705z" fill-rule="evenodd"/><path fill="#b7b7b7" d="m128.57504 481.25952c-0.22740173 0 -0.47143555 0.053894043 -0.7321167 0.16168213l-14.614555 6.207306c-0.5588989 0.24575806 -0.9790573 0.5569153 -1.2604904 0.9335022c-0.2814331 0.3765564 -0.42214203 0.84625244 -0.42214203 1.4091187c0 1.141571 0.56087494 1.9442444 1.6826324 2.40802l14.614555 6.171631c0.26457214 0.10940552 0.5119934 0.16409302 0.74227905 0.16409302c0.12852478 0 0.25172424 -0.017028809 0.36956787 -0.051116943c0.32899475 -0.099090576 0.5906067 -0.2814331 0.7848358 -0.5469971c0.19422913 -0.26953125 0.30323792 -0.56881714 0.3270111 -0.89779663c0.027755737 -0.32901 -0.03765869 -0.6441345 -0.19619751 -0.94537354c-0.15855408 -0.3052063 -0.4459381 -0.5430603 -0.86213684 -0.713501l-13.225182 -5.5557556l13.225182 -5.550812c0.41619873 -0.17044067 0.70358276 -0.40829468 0.86213684 -0.713501c0.15853882 -0.3052063 0.22395325 -0.6282654 0.19619751 -0.9691467c-0.023773193 -0.34088135 -0.13278198 -0.644104 -0.3270111 -0.9096985c-0.19422913 -0.26953125 -0.45584106 -0.45187378 -0.7848358 -0.5469971c-0.12095642 -0.03643799 -0.24752808 -0.054656982 -0.37973022 -0.054656982z" fill-rule="evenodd"/><path fill="#b7b7b7" d="m151.36533 472.9648c-0.33815002 0 -0.66075134 0.10357666 -0.96780396 0.3107605c-0.32899475 0.21801758 -0.5668335 0.5588989 -0.7134857 1.0226746l-8.436966 26.190857c-0.14666748 0.48754883 -0.15260315 0.90771484 -0.017837524 1.2604675c0.13476562 0.3527832 0.3607025 0.62628174 0.67781067 0.8205261c0.31710815 0.19421387 0.6639404 0.2913208 1.0404968 0.2913208c0.3765564 0 0.72340393 -0.10305786 1.0404968 -0.30917358c0.31710815 -0.20611572 0.548996 -0.54104614 0.6956482 -1.0048218l8.436966 -26.226532c0.14666748 -0.48754883 0.15260315 -0.9017639 0.017837524 -1.2426453c-0.13476562 -0.34088135 -0.3607025 -0.60842896 -0.67781067 -0.80267334c-0.31710815 -0.19421387 -0.6579895 -0.29727173 -1.0226593 -0.30917358c-0.024307251 -0.0010681152 -0.048538208 -0.0015869141 -0.07269287 -0.0015869141z" fill-rule="evenodd"/><path fill="#b7b7b7" d="m165.82722 481.25952c-0.13275146 0 -0.25959778 0.018218994 -0.3805542 0.054656982c-0.32899475 0.09512329 -0.5906067 0.27746582 -0.7848358 0.5469971c-0.19421387 0.26559448 -0.30322266 0.56881714 -0.3270111 0.9096985c-0.023773193 0.34088135 0.049545288 0.6639404 0.22000122 0.9691467c0.17044067 0.3052063 0.44989014 0.5430603 0.83833313 0.713501l13.230133 5.550812l-13.230133 5.5557556c-0.388443 0.17044067 -0.66789246 0.40829468 -0.83833313 0.713501c-0.17045593 0.301239 -0.24377441 0.6163635 -0.22000122 0.94537354c0.023788452 0.3289795 0.13279724 0.6282654 0.3270111 0.89779663c0.19422913 0.26556396 0.45584106 0.4479065 0.7848358 0.5469971c0.11785889 0.034088135 0.24130249 0.051116943 0.3703308 0.051116943c0.23120117 0 0.48036194 -0.0546875 0.74746704 -0.16409302l14.608612 -6.171631c0.5628662 -0.24179077 0.98301697 -0.5628662 1.260498 -0.9631958c0.28141785 -0.4043274 0.4221344 -0.8859253 0.4221344 -1.4448242c0 -1.0979614 -0.56088257 -1.8788452 -1.6826324 -2.3426208l-14.608612 -6.207306c-0.2631836 -0.107788086 -0.5089264 -0.16168213 -0.73724365 -0.16168213z" fill-rule="evenodd"/><path fill="#ef959d" d="m111.54593 127.90551l0 0c0 -4.3573914 3.5323715 -7.889763 7.889763 -7.889763l84.850395 0c2.0924988 0 4.099289 0.8312378 5.578903 2.3108597c1.4796295 1.4796143 2.3108673 3.486412 2.3108673 5.578903l0 0l0 0c0 4.357399 -3.5323792 7.889763 -7.8897705 7.889763l-84.850395 0c-4.3573914 0 -7.889763 -3.532364 -7.889763 -7.889763z" fill-rule="evenodd"/><path fill="#a5e4e1" d="m227.29921 127.90551l0 0c0 -4.3573914 3.532364 -7.889763 7.8897705 -7.889763l135.99998 0c2.0924988 0 4.099304 0.8312378 5.5789185 2.3108597c1.4796143 1.4796143 2.310852 3.486412 2.310852 5.578903l0 0l0 0c0 4.357399 -3.5323486 7.889763 -7.8897705 7.889763l-135.99998 0c-4.3574066 0 -7.8897705 -3.532364 -7.8897705 -7.889763z" fill-rule="evenodd"/><path fill="#a5e4e1" d="m158.88977 167.90552l0 0c0 -4.3574066 3.532364 -7.8897705 7.8897552 -7.8897705l186.17323 0c2.0924988 0 4.0992737 0.8312378 5.578888 2.310852c1.4796448 1.4796295 2.3108826 3.4864197 2.3108826 5.5789185l0 0l0 0c0 4.3573914 -3.5323792 7.8897552 -7.8897705 7.8897552l-186.17323 0c-4.3573914 0 -7.8897552 -3.532364 -7.8897552 -7.8897552z" fill-rule="evenodd"/><path fill="#fcddbc" d="m375.96588 167.90552l0 0c0 -4.3574066 3.5323792 -7.8897705 7.8897705 -7.8897705l84.85037 0c2.0924988 0 4.099304 0.8312378 5.5789185 2.310852c1.4796143 1.4796295 2.310852 3.4864197 2.310852 5.5789185l0 0l0 0c0 4.3573914 -3.5323486 7.8897552 -7.8897705 7.8897552l-84.85037 0c-4.3573914 0 -7.8897705 -3.532364 -7.8897705 -7.8897552z" fill-rule="evenodd"/><path fill="#a5e4e1" d="m491.71915 167.90552l0 0c0 -4.3574066 3.5323792 -7.8897705 7.8897705 -7.8897705l143.02365 0c2.0924683 0 4.099243 0.8312378 5.5788574 2.310852c1.4796143 1.4796295 2.310913 3.4864197 2.310913 5.5789185l0 0l0 0c0 4.3573914 -3.5324097 7.8897552 -7.8897705 7.8897552l-143.02365 0c-4.3573914 0 -7.8897705 -3.532364 -7.8897705 -7.8897552z" fill-rule="evenodd"/><path fill="#a5e4e1" d="m158.88977 207.90552l0 0c0 -4.3574066 3.532364 -7.8897705 7.8897552 -7.8897705l417.66925 0c2.0925293 0 4.099304 0.8312378 5.5789185 2.310852c1.4796143 1.4796295 2.310852 3.4864197 2.310852 5.5789185l0 0l0 0c0 4.3573914 -3.5323486 7.8897552 -7.8897705 7.8897552l-417.66925 0c-4.3573914 0 -7.8897552 -3.532364 -7.8897552 -7.8897552z" fill-rule="evenodd"/><path fill="#fcddbc" d="m607.47766 207.90552l0 0c0 -4.3574066 3.5324097 -7.8897705 7.8897705 -7.8897705l84.8504 0c2.0925293 0 4.099304 0.8312378 5.5789185 2.310852c1.4796143 1.4796295 2.310852 3.4864197 2.310852 5.5789185l0 0l0 0c0 4.3573914 -3.5323486 7.8897552 -7.8897705 7.8897552l-84.8504 0c-4.357361 0 -7.8897705 -3.532364 -7.8897705 -7.8897552z" fill-rule="evenodd"/><path fill="#a5e4e1" d="m158.88977 247.90552l0 0c0 -4.3574066 3.532364 -7.8897705 7.8897552 -7.8897705l96.03151 0c2.0924988 0 4.0992737 0.8312378 5.578888 2.310852c1.4796143 1.4796295 2.310852 3.4864197 2.310852 5.5789185l0 0l0 0c0 4.3573914 -3.5323486 7.8897552 -7.88974 7.8897552l-96.03151 0c-4.3573914 0 -7.8897552 -3.532364 -7.8897552 -7.8897552z" fill-rule="evenodd"/><path fill="#a5e4e1" d="m285.1916 247.90552l0 0c0 -4.3574066 3.5323792 -7.8897705 7.8897705 -7.8897705l156.75592 0c2.0924988 0 4.0992737 0.8312378 5.578888 2.310852c1.4796143 1.4796295 2.310852 3.4864197 2.310852 5.5789185l0 0l0 0c0 4.3573914 -3.5323486 7.8897552 -7.88974 7.8897552l-156.75592 0c-4.3573914 0 -7.8897705 -3.532364 -7.8897705 -7.8897552z" fill-rule="evenodd"/><path fill="#ef959d" d="m111.54593 287.90552l0 0c0 -4.3573914 3.5323715 -7.8897705 7.889763 -7.8897705l84.850395 0c2.0924988 0 4.099289 0.8312378 5.578903 2.310852c1.4796295 1.4796143 2.3108673 3.4864197 2.3108673 5.5789185l0 0l0 0c0 4.3573914 -3.5323792 7.8897705 -7.8897705 7.8897705l-84.850395 0c-4.3573914 0 -7.889763 -3.5323792 -7.889763 -7.8897705z" fill-rule="evenodd"/><path fill="#fcddbc" d="m158.88977 327.90552l0 0c0 -4.3573914 3.532364 -7.8897705 7.8897552 -7.8897705l136.00002 0c2.0924683 0 4.0992737 0.8312378 5.578888 2.310852c1.4796143 1.4796143 2.310852 3.4864197 2.310852 5.5789185l0 0l0 0c0 4.3573914 -3.5323486 7.8897705 -7.88974 7.8897705l-136.00002 0c-4.3573914 0 -7.8897552 -3.5323792 -7.8897552 -7.8897705z" fill-rule="evenodd"/><path fill="#a5e4e1" d="m325.1706 327.90552l0 0c0 -4.3573914 3.5323792 -7.8897705 7.8897705 -7.8897705l156.75592 0c2.0924988 0 4.0992737 0.8312378 5.578888 2.310852c1.4796143 1.4796143 2.310852 3.4864197 2.310852 5.5789185l0 0l0 0c0 4.3573914 -3.5323486 7.8897705 -7.88974 7.8897705l-156.75592 0c-4.3573914 0 -7.8897705 -3.5323792 -7.8897705 -7.8897705z" fill-rule="evenodd"/><path fill="#a5e4e1" d="m158.88977 367.90552l0 0c0 -4.3573914 3.532364 -7.8897705 7.8897552 -7.8897705l186.17323 0c2.0924988 0 4.0992737 0.8312378 5.578888 2.310852c1.4796448 1.4796143 2.3108826 3.4864197 2.3108826 5.5789185l0 0l0 0c0 4.3573914 -3.5323792 7.8897705 -7.8897705 7.8897705l-186.17323 0c-4.3573914 0 -7.8897552 -3.5323792 -7.8897552 -7.8897705z" fill-rule="evenodd"/><path fill="#a5e4e1" d="m375.24216 367.90552l0 0c0 -4.3573914 3.5323486 -7.8897705 7.8897705 -7.8897705l96.031494 0c2.0924988 0 4.0992737 0.8312378 5.578888 2.310852c1.4796143 1.4796143 2.310852 3.4864197 2.310852 5.5789185l0 0l0 0c0 4.3573914 -3.5323486 7.8897705 -7.88974 7.8897705l-96.031494 0c-4.357422 0 -7.8897705 -3.5323792 -7.8897705 -7.8897705z" fill-rule="evenodd"/><path fill="#a5e4e1" d="m501.45145 367.90552l0 0c0 -4.3573914 3.5323792 -7.8897705 7.8897705 -7.8897705l196.6614 0c2.0924683 0 4.099304 0.8312378 5.5789185 2.310852c1.4796143 1.4796143 2.310852 3.4864197 2.310852 5.5789185l0 0l0 0c0 4.3573914 -3.5323486 7.8897705 -7.8897705 7.8897705l-196.6614 0c-4.3573914 0 -7.8897705 -3.5323792 -7.8897705 -7.8897705z" fill-rule="evenodd"/><path fill="#fcddbc" d="m728.3858 367.90552l0 0c0 -4.3573914 3.5324097 -7.8897705 7.8897705 -7.8897705l84.8504 0c2.0925293 0 4.099304 0.8312378 5.5789185 2.310852c1.4796143 1.4796143 2.310852 3.4864197 2.310852 5.5789185l0 0l0 0c0 4.3573914 -3.5323486 7.8897705 -7.8897705 7.8897705l-84.8504 0c-4.357361 0 -7.8897705 -3.5323792 -7.8897705 -7.8897705z" fill-rule="evenodd"/><path fill="#a5e4e1" d="m158.88977 404.38058l0 0c0 -4.3573914 3.532364 -7.8897705 7.8897552 -7.8897705l196.66142 0c2.0924988 0 4.0992737 0.8312378 5.578888 2.310852c1.4796448 1.4796143 2.3108826 3.4864197 2.3108826 5.5789185l0 0l0 0c0 4.3573914 -3.5323792 7.8897705 -7.8897705 7.8897705l-196.66142 0c-4.3573914 0 -7.8897552 -3.5323792 -7.8897552 -7.8897705z" fill-rule="evenodd"/><path fill="#ef959d" d="m111.54593 447.90552l0 0c0 -4.3573914 3.5323715 -7.8897705 7.889763 -7.8897705l84.850395 0c2.0924988 0 4.099289 0.8312378 5.578903 2.310852c1.4796295 1.4796143 2.3108673 3.4864197 2.3108673 5.5789185l0 0l0 0c0 4.3573914 -3.5323792 7.8897705 -7.8897705 7.8897705l-84.850395 0c-4.3573914 0 -7.889763 -3.5323792 -7.889763 -7.8897705z" fill-rule="evenodd"/></g></svg>