<svg version="1.1" viewBox="0.0 0.0 960.0 540.0" fill="none" stroke="none" stroke-linecap="square" stroke-miterlimit="10" xmlns:xlink="http://www.w3.org/1999/xlink" xmlns="http://www.w3.org/2000/svg"><clipPath id="p.0"><path d="m0 0l960.0 0l0 540.0l-960.0 0l0 -540.0z" clip-rule="nonzero"/></clipPath><g clip-path="url(#p.0)"><path fill="#000000" fill-opacity="0.0" d="m0 0l960.0 0l0 540.0l-960.0 0z" fill-rule="evenodd"/><path fill="#ffffff" d="m0.010498688 17.463148l0 0c0 -9.635933 7.811467 -17.4474 17.447401 -17.4474l925.1052 0c4.6273193 0 9.0651245 1.838203 12.337158 5.110225c3.2720337 3.2720218 5.1102295 7.7098365 5.1102295 12.337175l0 505.10522c0 9.635925 -7.8114624 17.447388 -17.447388 17.447388l-925.1052 0c-9.635933 0 -17.447401 -7.8114624 -17.447401 -17.447388z" fill-rule="evenodd"/><path stroke="#efefef" stroke-width="2.0" stroke-linejoin="round" stroke-linecap="butt" d="m0.010498688 17.463148l0 0c0 -9.635933 7.811467 -17.4474 17.447401 -17.4474l925.1052 0c4.6273193 0 9.0651245 1.838203 12.337158 5.110225c3.2720337 3.2720218 5.1102295 7.7098365 5.1102295 12.337175l0 505.10522c0 9.635925 -7.8114624 17.447388 -17.447388 17.447388l-925.1052 0c-9.635933 0 -17.447401 -7.8114624 -17.447401 -17.447388z" fill-rule="evenodd"/><path fill="#000000" fill-opacity="0.0" d="m0.010498688 46.015747l960.0 0" fill-rule="evenodd"/><path stroke="#efefef" stroke-width="2.0" stroke-linejoin="round" stroke-linecap="butt" d="m0.010498688 46.015747l960.0 0" fill-rule="evenodd"/><path fill="#a5e4e1" d="m876.6693 23.906677l0 0c0 -4.357395 3.5323486 -7.889763 7.8897705 -7.889763l0 0c2.0924683 0 4.099243 0.8312397 5.5788574 2.3108578c1.4796143 1.4796181 2.310852 3.4864101 2.310852 5.578905l0 0c0 4.357397 -3.5323486 7.889765 -7.8897095 7.889765l0 0c-4.357422 0 -7.8897705 -3.5323677 -7.8897705 -7.889765z" fill-rule="evenodd"/><path fill="#fcddbc" d="m900.6693 23.906677l0 0c0 -4.357395 3.5323486 -7.889763 7.8897705 -7.889763l0 0c2.0924683 0 4.099243 0.8312397 5.5788574 2.3108578c1.4796143 1.4796181 2.310852 3.4864101 2.310852 5.578905l0 0c0 4.357397 -3.5323486 7.889765 -7.8897095 7.889765l0 0c-4.357422 0 -7.8897705 -3.5323677 -7.8897705 -7.889765z" fill-rule="evenodd"/><path fill="#ef959d" d="m924.6693 23.906677l0 0c0 -4.357395 3.5323486 -7.889763 7.8897705 -7.889763l0 0c2.0924683 0 4.099243 0.8312397 5.5788574 2.3108578c1.4796143 1.4796181 2.310852 3.4864101 2.310852 5.578905l0 0c0 4.357397 -3.5323486 7.889765 -7.8897095 7.889765l0 0c-4.357422 0 -7.8897705 -3.5323677 -7.8897705 -7.889765z" fill-rule="evenodd"/><path fill="#efefef" d="m82.67979 23.905512l0 0c0 -4.357397 3.5323715 -7.889763 7.8897705 -7.889763l745.98425 0c2.0924683 0 4.099243 0.8312397 5.5788574 2.3108578c1.4796143 1.4796181 2.310852 3.4864101 2.310852 5.578905l0 0l0 0c0 4.357397 -3.5323486 7.889763 -7.8897095 7.889763l-745.98425 0c-4.357399 0 -7.8897705 -3.5323658 -7.8897705 -7.889763z" fill-rule="evenodd"/><path fill="#a5e4e1" d="m44.30697 12.1482935l15.779526 5.7007875l-15.779526 5.7007885l-15.77953 -5.7007885z" fill-rule="evenodd"/><path fill="#64c9cd" d="m44.75328 35.587696l15.748032 -5.624407l0 -11.288977l-15.748032 5.6244087z" fill-rule="evenodd"/><path fill="#b7b7b7" d="m60.086613 97.68763l0 0c0 -6.076561 4.926029 -11.002594 11.002598 -11.002594l389.93182 0c2.9180603 0 5.716614 1.1592026 7.779999 3.2225876c2.063385 2.063385 3.2225952 4.8619385 3.2225952 7.7800064l0 1.0499344l0 0c0 6.076561 -4.9260254 11.002594 -11.002594 11.002594l-389.93182 0c-6.0765686 0 -11.002598 -4.926033 -11.002598 -11.002594z" fill-rule="evenodd"/><path fill="#a5e4e1" d="m60.989502 138.51706l0 0c0 -6.366501 5.161064 -11.527557 11.527557 -11.527557l244.09448 0c3.057312 0 5.98938 1.214508 8.151215 3.3763428c2.1618347 2.1618347 3.3763428 5.093918 3.3763428 8.151215l0 0l0 0c0 6.366501 -5.1610413 11.527557 -11.527557 11.527557l-244.09448 0c-6.366493 0 -11.527557 -5.1610565 -11.527557 -11.527557z" fill-rule="evenodd"/><path fill="#efefef" d="m60.989502 199.18373l0 0c0 -4.3574066 3.532364 -7.8897705 7.889763 -7.8897705l329.07086 0c2.0924988 0 4.0992737 0.8312378 5.578888 2.3108673c1.4796448 1.4796143 2.3108826 3.4864044 2.3108826 5.578903l0 0l0 0c0 4.3573914 -3.5323792 7.8897552 -7.8897705 7.8897552l-329.07086 0c-4.357399 0 -7.889763 -3.532364 -7.889763 -7.8897552z" fill-rule="evenodd"/><path fill="#efefef" d="m60.989502 224.7769l0 0c0 -4.3573914 3.532364 -7.8897552 7.889763 -7.8897552l329.07086 0c2.0924988 0 4.0992737 0.8312378 5.578888 2.310852c1.4796448 1.4796143 2.3108826 3.4864044 2.3108826 5.578903l0 0l0 0c0 4.3573914 -3.5323792 7.8897705 -7.8897705 7.8897705l-329.07086 0c-4.357399 0 -7.889763 -3.5323792 -7.889763 -7.8897705z" fill-rule="evenodd"/><path fill="#efefef" d="m620.7638 101.42671l0 0c0 -8.141602 6.6000366 -14.741676 14.741638 -14.741676l242.20172 0c3.909729 0 7.6593018 1.5531387 10.42395 4.3177414c2.7645874 2.764595 4.317688 6.5141983 4.317688 10.423935l0 124.84737c0 8.141602 -6.6000366 14.741669 -14.741638 14.741669l-242.20172 0c-8.141602 0 -14.741638 -6.600067 -14.741638 -14.741669z" fill-rule="evenodd"/><path fill="#ffffff" d="m640.46454 155.22603l0 0c0 -3.7052612 3.0037231 -6.708969 6.7089844 -6.708969l108.566345 0c1.7792969 0 3.4857788 0.7068329 4.7439575 1.9650116c1.2581787 1.2581787 1.9649658 2.9646301 1.9649658 4.7439575l0 56.818283c0 3.7052612 -3.003662 6.708969 -6.7089233 6.708969l-108.566345 0c-3.7052612 0 -6.7089844 -3.003708 -6.7089844 -6.708969z" fill-rule="evenodd"/><path fill="#666666" d="m567.7034 178.48146l0 0c0 -6.0380707 4.8948364 -10.932907 10.932861 -10.932907l156.8429 0c2.8995972 0 5.68042 1.1518555 7.730713 3.202179c2.050293 2.0503082 3.2021484 4.8311462 3.2021484 7.730728l0 92.5909c0 6.0380554 -4.8947754 10.932892 -10.932861 10.932892l-156.8429 0c-6.038025 0 -10.932861 -4.8948364 -10.932861 -10.932892z" fill-rule="evenodd"/><path fill="#a5e4e1" d="m584.1811 194.08136l0 0c0 -4.3573914 3.5323486 -7.8897552 7.8897705 -7.8897552l55.338562 0c2.0925293 0 4.099304 0.8312378 5.5789185 2.310852c1.4796143 1.4796143 2.310852 3.4864197 2.310852 5.578903l0 0l0 0c0 4.3574066 -3.5323486 7.8897705 -7.8897705 7.8897705l-55.338562 0c-4.357422 0 -7.8897705 -3.532364 -7.8897705 -7.8897705z" fill-rule="evenodd"/><path fill="#a5e4e1" d="m604.9761 219.75853l0 0c0 -4.3573914 3.5323486 -7.8897705 7.8897705 -7.8897705l86.33069 0c2.0925293 0 4.099304 0.83125305 5.5789185 2.3108673c1.4796143 1.4796143 2.310852 3.4864044 2.310852 5.578903l0 0l0 0c0 4.3573914 -3.5323486 7.8897705 -7.8897705 7.8897705l-86.33069 0c-4.357422 0 -7.8897705 -3.5323792 -7.8897705 -7.8897705z" fill-rule="evenodd"/><path fill="#a5e4e1" d="m584.1808 245.4357l0 0c0 -4.3574066 3.5324097 -7.8897705 7.8897705 -7.8897705l86.33075 0c2.0924683 0 4.099243 0.8312378 5.5788574 2.3108673c1.4796143 1.4796143 2.310852 3.4864044 2.310852 5.578903l0 0l0 0c0 4.3573914 -3.5323486 7.8897552 -7.8897095 7.8897552l-86.33075 0c-4.357361 0 -7.8897705 -3.532364 -7.8897705 -7.8897552z" fill-rule="evenodd"/><path fill="#a5e4e1" d="m774.5591 122.664345l0 0c0 -3.7052612 3.003662 -6.7089615 6.7089233 -6.7089615l88.69232 0c1.7793579 0 3.4857788 0.7068329 4.7439575 1.965004c1.2581787 1.2581787 1.9650269 2.9646301 1.9650269 4.7439575l0 56.81829c0 3.7052612 -3.0037231 6.708969 -6.7089844 6.708969l-88.69232 0l0 0c-3.7052612 0 -6.7089233 -3.003708 -6.7089233 -6.708969z" fill-rule="evenodd"/><path fill="#999999" d="m640.46454 121.83202l0 0c0 -4.357399 3.5324097 -7.889763 7.8897705 -7.889763l86.33075 0c2.0924683 0 4.099243 0.8312378 5.5788574 2.310852c1.4796753 1.4796219 2.310913 3.486412 2.310913 5.578911l0 0l0 0c0 4.3573914 -3.5324097 7.889763 -7.8897705 7.889763l-86.33075 0c-4.357361 0 -7.8897705 -3.5323715 -7.8897705 -7.889763z" fill-rule="evenodd"/><path fill="#999999" d="m792.21783 209.86089l0 0c0 -4.3573914 3.5324097 -7.8897552 7.8897705 -7.8897552l68.66144 0c2.0924683 0 4.099243 0.8312378 5.5789185 2.310852c1.4796143 1.4796295 2.310852 3.4864197 2.310852 5.578903l0 0l0 0c0 4.3574066 -3.5324097 7.8897705 -7.8897705 7.8897705l-68.66144 0c-4.357361 0 -7.8897705 -3.532364 -7.8897705 -7.8897705z" fill-rule="evenodd"/><path fill="#b7b7b7" d="m274.042 324.70074l0 0c0 -6.076538 4.9260254 -11.002594 11.002594 -11.002594l389.9318 0c2.9180908 0 5.716675 1.1592102 7.7800293 3.2225952c2.0634155 2.063385 3.2225952 4.8619385 3.2225952 7.779999l0 1.0499573l0 0c0 6.076538 -4.9260254 11.002594 -11.0026245 11.002594l-389.9318 0c-6.0765686 0 -11.002594 -4.926056 -11.002594 -11.002594z" fill-rule="evenodd"/><path fill="#efefef" d="m150.06299 360.24146l0 0c0 -4.3573914 3.532364 -7.88974 7.8897705 -7.88974l644.0945 0c2.0924683 0 4.099304 0.8312378 5.5789185 2.310852c1.4796143 1.4796143 2.310852 3.4864197 2.310852 5.578888l0 0l0 0c0 4.357422 -3.5323486 7.8897705 -7.8897705 7.8897705l-644.0945 0c-4.3574066 0 -7.8897705 -3.5323486 -7.8897705 -7.8897705z" fill-rule="evenodd"/><path fill="#a5e4e1" d="m291.13647 391.61942l0 0c0 -4.3573914 3.5323792 -7.8897705 7.8897705 -7.8897705l329.07086 0c2.0925293 0 4.099304 0.8312683 5.5789185 2.3108826c1.4796143 1.4796143 2.310852 3.4863892 2.310852 5.578888l0 0l0 0c0 4.3573914 -3.5323486 7.8897705 -7.8897705 7.8897705l-329.07086 0c-4.3573914 0 -7.8897705 -3.5323792 -7.8897705 -7.8897705z" fill-rule="evenodd"/><path fill="#efefef" d="m390.64566 449.41058l0 0c0 -6.0380554 4.8948364 -10.932892 10.932922 -10.932892l156.84286 0c2.8995361 0 5.68042 1.1518555 7.730713 3.202179c2.050293 2.0503235 3.2021484 4.8311462 3.2021484 7.730713l0 92.59088c0 6.038086 -4.8948364 10.932922 -10.932861 10.932922l-156.84286 0c-6.038086 0 -10.932922 -4.8948364 -10.932922 -10.932922z" fill-rule="evenodd"/><path fill="#efefef" d="m197.5538 449.41058l0 0c0 -6.0380554 4.8948364 -10.932892 10.932907 -10.932892l156.84285 0c2.8995972 0 5.68042 1.1518555 7.7307434 3.202179c2.0503235 2.0503235 3.202179 4.8311462 3.202179 7.730713l0 92.59088c0 6.038086 -4.8948364 10.932922 -10.932922 10.932922l-156.84285 0c-6.0380707 0 -10.932907 -4.8948364 -10.932907 -10.932922z" fill-rule="evenodd"/><path fill="#efefef" d="m583.73755 449.4098l0 0c0 -6.038086 4.8948364 -10.932892 10.932861 -10.932892l156.8429 0c2.8995972 0 5.68042 1.1518555 7.730713 3.2021484c2.050293 2.0503235 3.2021484 4.8311462 3.2021484 7.7307434l0 92.59088c0 6.038086 -4.8947754 10.932922 -10.932861 10.932922l-156.8429 0c-6.038025 0 -10.932861 -4.8948364 -10.932861 -10.932922z" fill-rule="evenodd"/><path fill="#64c9cd" d="m43.939632 35.587696l-15.748032 -5.624407l0 -11.288977l15.748032 5.6244087z" fill-rule="evenodd"/></g></svg>