<svg version="1.1" viewBox="0.0 0.0 1448.6692913385828 298.40157480314963" fill="none" stroke="none" stroke-linecap="square" stroke-miterlimit="10" xmlns:xlink="http://www.w3.org/1999/xlink" xmlns="http://www.w3.org/2000/svg"><clipPath id="p.0"><path d="m0 0l1448.6693 0l0 298.40158l-1448.6693 0l0 -298.40158z" clip-rule="nonzero"/></clipPath><g clip-path="url(#p.0)"><path fill="#000000" fill-opacity="0.0" d="m0 0l1448.6693 0l0 298.40158l-1448.6693 0z" fill-rule="evenodd"/><path fill="#000000" fill-opacity="0.0" d="m308.19946 50.632545l1118.6141 0l0 197.13385l-1118.6141 0z" fill-rule="evenodd"/><path fill="#64c9cd" d="m367.3557 139.41693l-13.484375 0l0 61.015625l-25.09375 0l0 -61.015625l-9.078125 0l0 -20.812508l9.078125 0l0 -2.359375q0 -15.09375 8.65625 -22.9375q8.65625 -7.859375 25.375 -7.859375q2.78125 0 4.109375 0.15625l0 21.265625q-7.1875 -0.4375 -10.125 2.0625q-2.921875 2.484375 -2.921875 8.9375l0 0.734375l13.484375 0l0 20.812508zm92.546265 -20.812508l0 81.82813l-25.078125 0l0 -11.140625q-3.8125 5.421875 -10.34375 8.71875q-6.53125 3.296875 -14.453125 3.296875q-9.375 0 -16.5625 -4.171875q-7.1875 -4.1875 -11.15625 -12.09375q-3.953125 -7.921875 -3.953125 -18.640625l0 -47.796883l24.9375 0l0 44.437508q0 8.203125 4.25 12.75q4.25 4.546875 11.4375 4.546875q7.328125 0 11.578125 -4.546875q4.265625 -4.546875 4.265625 -12.75l0 -44.437508l25.078125 0zm43.11197 -26.703125l0 108.53126l-25.078125 0l0 -108.53126l25.078125 0zm43.26358 0l0 108.53126l-25.078125 0l0 -108.53126l25.078125 0zm51.48236 109.70313q-10.71875 0 -19.078125 -3.65625q-8.359375 -3.671875 -13.203125 -10.046875q-4.828125 -6.390625 -5.421875 -14.3125l24.796875 0q0.4375 4.265625 3.953125 6.90625q3.515625 2.625 8.65625 2.625q4.6875 0 7.25 -1.828125q2.578125 -1.828125 2.578125 -4.765625q0 -3.515625 -3.671875 -5.203125q-3.671875 -1.6875 -11.875 -3.734375q-8.796875 -2.0625 -14.671875 -4.328125q-5.859375 -2.28125 -10.125 -7.1875q-4.25 -4.921875 -4.25 -13.28125q0 -7.03125 3.890625 -12.828125q3.890625 -5.7968826 11.4375 -9.156258q7.5625 -3.375 17.96875 -3.375q15.390625 0 24.265625 7.625q8.875 7.6250076 10.203125 20.234383l-23.171875 0q-0.59375 -4.25 -3.75 -6.734375q-3.140625 -2.5 -8.28125 -2.5q-4.40625 0 -6.75 1.6875q-2.34375 1.671875 -2.34375 4.609375q0 3.515625 3.734375 5.28125q3.75 1.765625 11.671875 3.515625q9.09375 2.34375 14.8125 4.625q5.71875 2.265625 10.03125 7.328125q4.328125 5.0625 4.484375 13.5625q0 7.1875 -4.03125 12.84375q-4.03125 5.640625 -11.59375 8.875q-7.546875 3.21875 -17.515625 3.21875zm94.14667 -22.4375l0 21.265625l-12.765625 0q-13.640625 0 -21.265625 -6.671875q-7.625 -6.671875 -7.625 -21.78125l0 -32.5625l-9.96875 0l0 -20.812508l9.96875 0l0 -19.953125l25.078125 0l0 19.953125l16.4375 0l0 20.812508l-16.4375 0l0 32.859375q0 3.671875 1.765625 5.28125q1.765625 1.609375 5.859375 1.609375l8.953125 0zm8.94873 -19.796875q0 -12.609375 4.765625 -22.140625q4.765625 -9.531258 12.96875 -14.656258q8.21875 -5.140625 18.34375 -5.140625q8.65625 0 15.171875 3.515625q6.53125 3.515625 10.046875 9.234383l0 -11.578133l25.078125 0l0 81.82813l-25.078125 0l0 -11.578125q-3.65625 5.71875 -10.1875 9.234375q-6.53125 3.515625 -15.1875 3.515625q-9.96875 0 -18.1875 -5.203125q-8.203125 -5.203125 -12.96875 -14.8125q-4.765625 -9.609375 -4.765625 -22.21875zm61.296875 0.140625q0 -9.375 -5.203125 -14.796875q-5.203125 -5.4375 -12.6875 -5.4375q-7.484375 0 -12.6875 5.359375q-5.203125 5.34375 -5.203125 14.734375q0 9.390625 5.203125 14.890625q5.203125 5.5 12.6875 5.5q7.484375 0 12.6875 -5.421875q5.203125 -5.4375 5.203125 -14.828125zm38.282715 0q0 -12.75 5.203125 -22.28125q5.203125 -9.531258 14.515625 -14.656258q9.3125 -5.140625 21.34375 -5.140625q15.390625 0 25.734375 8.0625q10.34375 8.062508 13.5625 22.734383l-26.6875 0q-3.375 -9.390625 -13.046875 -9.390625q-6.890625 0 -11.0 5.359375q-4.109375 5.34375 -4.109375 15.3125q0 9.984375 4.109375 15.34375q4.109375 5.34375 11.0 5.34375q9.671875 0 13.046875 -9.390625l26.6875 0q-3.21875 14.375 -13.640625 22.59375q-10.40625 8.203125 -25.65625 8.203125q-12.03125 0 -21.34375 -5.125q-9.3125 -5.140625 -14.515625 -14.671875q-5.203125 -9.53125 -5.203125 -22.296875zm143.72705 40.921875l-24.9375 -34.3125l0 34.3125l-25.078125 0l0 -108.53126l25.078125 0l0 59.984383l24.78125 -33.281258l30.953125 0l-34.03125 41.062508l34.3125 40.765625l-31.078125 0zm122.164856 -97.96876q17.296875 0 30.203125 6.53125q12.90625 6.53125 19.875 18.34375q6.96875 11.796883 6.96875 27.187508q0 12.46875 -4.328125 23.171875q-4.328125 10.703125 -12.765625 17.09375q-8.421875 6.375 -20.015625 6.375q-7.765625 0 -12.828125 -3.078125q-5.0625 -3.078125 -6.828125 -8.65625q-4.09375 5.71875 -10.546875 8.875q-6.453125 3.15625 -14.09375 3.15625q-10.84375 0 -17.078125 -6.53125q-6.234375 -6.53125 -6.234375 -17.8125q0 -10.71875 4.390625 -20.171875q4.40625 -9.453125 12.171875 -15.171875q7.78125 -5.71875 17.46875 -5.71875q12.3125 0 16.71875 8.796875l1.3125 -7.78125l20.234375 0l-6.453125 36.8125q-0.4375 2.640625 -0.4375 4.6875q0 6.453125 5.71875 6.453125q7.046875 0 10.78125 -9.015625q3.75 -9.015625 3.75 -20.75q0 -16.859375 -10.640625 -26.390625q-10.625 -9.531258 -29.84375 -9.531258q-16.421875 0 -29.84375 7.921875q-13.421875 7.9062576 -21.046875 21.625008q-7.625 13.703125 -7.625 30.140625q0 17.734375 10.328125 27.5625q10.34375 9.828125 28.96875 9.828125q14.53125 0 25.96875 -5.28125l3.953125 15.984375q-14.375 6.3125 -32.265625 6.3125q-16.71875 0 -29.40625 -6.453125q-12.6875 -6.453125 -19.578125 -18.34375q-6.890625 -11.875 -6.890625 -27.703125q0 -22.15625 10.40625 -40.109375q10.421875 -17.968758 28.671875 -28.156258q18.265625 -10.203125 40.859375 -10.203125zm-16.140625 80.95313q4.109375 0 7.703125 -2.484375q3.59375 -2.5 5.71875 -6.671875q2.125 -4.1875 2.125 -9.03125q0 -4.984375 -2.796875 -8.125q-2.78125 -3.15625 -7.609375 -3.15625q-6.453125 0 -10.71875 5.578125q-4.25 5.5625 -4.25 13.1875q0 4.84375 2.484375 7.78125q2.5 2.921875 7.34375 2.921875zm209.5763 -85.93751l0 102.95313l-25.078125 0l0 -61.75l-23.03125 61.75l-20.234375 0l-23.171875 -61.890625l0 61.890625l-25.078125 0l0 -102.95313l29.625 0l28.890625 71.28126l28.59375 -71.28126l29.484375 0zm43.11487 0l0 102.95313l-25.078125 0l0 -102.95313l25.078125 0zm92.247925 0l0 20.09375l-27.28125 0l0 82.85938l-25.078125 0l0 -82.85938l-27.281128 0l0 -20.09375l79.6405 0z" fill-rule="nonzero"/><path fill="#a5e4e1" d="m166.07722 65.08117l112.83351 40.77558l-112.83351 40.775574l-112.83353 -40.775574z" fill-rule="evenodd"/><path fill="#64c9cd" d="m162.85391 175.05858l-112.70885 -40.640976l0 -22.524002l112.70885 40.640976z" fill-rule="evenodd"/><path fill="#64c9cd" d="m169.17586 175.05858l112.70885 -40.640976l0 -22.524002l-112.70885 40.640976z" fill-rule="evenodd"/><path fill="#64c9cd" d="m162.85391 204.31133l-112.70885 -40.640976l0 -22.524002l112.70885 40.640976z" fill-rule="evenodd"/><path fill="#64c9cd" d="m169.17586 204.31085l112.70885 -40.640976l0 -22.524002l-112.70885 40.640976z" fill-rule="evenodd"/><path fill="#64c9cd" d="m162.91624 233.31671l-112.70885 -40.640976l0 -22.523987l112.70885 40.640976z" fill-rule="evenodd"/><path fill="#64c9cd" d="m169.23819 233.31671l112.70886 -40.640976l0 -22.523987l-112.70886 40.640976z" fill-rule="evenodd"/></g></svg>