<svg version="1.1" viewBox="0.0 0.0 960.0 540.0" fill="none" stroke="none" stroke-linecap="square" stroke-miterlimit="10" xmlns:xlink="http://www.w3.org/1999/xlink" xmlns="http://www.w3.org/2000/svg"><clipPath id="p.0"><path d="m0 0l960.0 0l0 540.0l-960.0 0l0 -540.0z" clip-rule="nonzero"/></clipPath><g clip-path="url(#p.0)"><path fill="#000000" fill-opacity="0.0" d="m0 0l960.0 0l0 540.0l-960.0 0z" fill-rule="evenodd"/><path fill="#ffffff" d="m0.010498688 17.463148l0 0c0 -9.635933 7.811467 -17.4474 17.447401 -17.4474l925.1052 0c4.6273193 0 9.0651245 1.838203 12.337158 5.110225c3.2720337 3.2720218 5.1102295 7.7098365 5.1102295 12.337175l0 505.10522c0 9.635925 -7.8114624 17.447388 -17.447388 17.447388l-925.1052 0c-9.635933 0 -17.447401 -7.8114624 -17.447401 -17.447388z" fill-rule="evenodd"/><path stroke="#efefef" stroke-width="2.0" stroke-linejoin="round" stroke-linecap="butt" d="m0.010498688 17.463148l0 0c0 -9.635933 7.811467 -17.4474 17.447401 -17.4474l925.1052 0c4.6273193 0 9.0651245 1.838203 12.337158 5.110225c3.2720337 3.2720218 5.1102295 7.7098365 5.1102295 12.337175l0 505.10522c0 9.635925 -7.8114624 17.447388 -17.447388 17.447388l-925.1052 0c-9.635933 0 -17.447401 -7.8114624 -17.447401 -17.447388z" fill-rule="evenodd"/><path fill="#000000" fill-opacity="0.0" d="m0.010498688 46.015747l960.0 0" fill-rule="evenodd"/><path stroke="#efefef" stroke-width="2.0" stroke-linejoin="round" stroke-linecap="butt" d="m0.010498688 46.015747l960.0 0" fill-rule="evenodd"/><path fill="#a5e4e1" d="m876.6693 23.906677l0 0c0 -4.357395 3.5323486 -7.889763 7.8897705 -7.889763l0 0c2.0924683 0 4.099243 0.8312397 5.5788574 2.3108578c1.4796143 1.4796181 2.310852 3.4864101 2.310852 5.578905l0 0c0 4.357397 -3.5323486 7.889765 -7.8897095 7.889765l0 0c-4.357422 0 -7.8897705 -3.5323677 -7.8897705 -7.889765z" fill-rule="evenodd"/><path fill="#fcddbc" d="m900.6693 23.906677l0 0c0 -4.357395 3.5323486 -7.889763 7.8897705 -7.889763l0 0c2.0924683 0 4.099243 0.8312397 5.5788574 2.3108578c1.4796143 1.4796181 2.310852 3.4864101 2.310852 5.578905l0 0c0 4.357397 -3.5323486 7.889765 -7.8897095 7.889765l0 0c-4.357422 0 -7.8897705 -3.5323677 -7.8897705 -7.889765z" fill-rule="evenodd"/><path fill="#ef959d" d="m924.6693 23.906677l0 0c0 -4.357395 3.5323486 -7.889763 7.8897705 -7.889763l0 0c2.0924683 0 4.099243 0.8312397 5.5788574 2.3108578c1.4796143 1.4796181 2.310852 3.4864101 2.310852 5.578905l0 0c0 4.357397 -3.5323486 7.889765 -7.8897095 7.889765l0 0c-4.357422 0 -7.8897705 -3.5323677 -7.8897705 -7.889765z" fill-rule="evenodd"/><path fill="#efefef" d="m82.67979 23.905512l0 0c0 -4.357397 3.5323715 -7.889763 7.8897705 -7.889763l745.98425 0c2.0924683 0 4.099243 0.8312397 5.5788574 2.3108578c1.4796143 1.4796181 2.310852 3.4864101 2.310852 5.578905l0 0l0 0c0 4.357397 -3.5323486 7.889763 -7.8897095 7.889763l-745.98425 0c-4.357399 0 -7.8897705 -3.5323658 -7.8897705 -7.889763z" fill-rule="evenodd"/><path fill="#efefef" d="m82.67979 104.92856l0 0c0 -5.825493 4.722496 -10.547981 10.547981 -10.547981l209.10878 0c2.7974854 0 5.4804077 1.1113052 7.4585266 3.0894318c1.9781494 1.9781342 3.089447 4.661049 3.089447 7.4585495l0 303.65994c0 5.8255005 -4.7225037 10.547974 -10.547974 10.547974l-209.10878 0c-5.825485 0 -10.547981 -4.722473 -10.547981 -10.547974z" fill-rule="evenodd"/><path fill="#ffffff" d="m93.71916 113.564255l0 0c0 -4.7675934 3.8648987 -8.6325 8.632492 -8.6325l190.861 0c2.2894897 0 4.485199 0.9094925 6.1040955 2.5284042c1.6188965 1.6189041 2.5284119 3.8146133 2.5284119 6.1040955l0 19.17595c0 4.7675934 -3.8648987 8.632492 -8.632507 8.632492l-190.861 0c-4.7675934 0 -8.632492 -3.8648987 -8.632492 -8.632492z" fill-rule="evenodd"/><path fill="#ffffff" d="m93.71916 156.4417l0 0c0 -4.7675934 3.8648987 -8.632492 8.632492 -8.632492l190.861 0c2.2894897 0 4.485199 0.90948486 6.1040955 2.5283966c1.6188965 1.6189117 2.5284119 3.814621 2.5284119 6.1040955l0 19.17595c0 4.7675934 -3.8648987 8.632507 -8.632507 8.632507l-190.861 0c-4.7675934 0 -8.632492 -3.864914 -8.632492 -8.632507z" fill-rule="evenodd"/><path fill="#ffffff" d="m93.71916 199.31754l0 0c0 -4.7675934 3.8648987 -8.632492 8.632492 -8.632492l190.861 0c2.2894897 0 4.485199 0.90948486 6.1040955 2.5283966c1.6188965 1.6189117 2.5284119 3.814621 2.5284119 6.1040955l0 19.17595c0 4.7675934 -3.8648987 8.632507 -8.632507 8.632507l-190.861 0c-4.7675934 0 -8.632492 -3.864914 -8.632492 -8.632507z" fill-rule="evenodd"/><path fill="#ffffff" d="m93.71916 242.19417l0 0c0 -4.7675934 3.8648987 -8.632492 8.632492 -8.632492l190.861 0c2.2894897 0 4.485199 0.9095001 6.1040955 2.5283966c1.6188965 1.6189117 2.5284119 3.814621 2.5284119 6.1040955l0 19.17595c0 4.7676086 -3.8648987 8.632507 -8.632507 8.632507l-190.861 0c-4.7675934 0 -8.632492 -3.8648987 -8.632492 -8.632507z" fill-rule="evenodd"/><path fill="#ffffff" d="m93.71916 285.0708l0 0c0 -4.767578 3.8648987 -8.632477 8.632492 -8.632477l190.861 0c2.2894897 0 4.485199 0.90948486 6.1040955 2.5283813c1.6188965 1.618927 2.5284119 3.8146362 2.5284119 6.1040955l0 19.175964c0 4.7676086 -3.8648987 8.632507 -8.632507 8.632507l-190.861 0c-4.7675934 0 -8.632492 -3.8648987 -8.632492 -8.632507z" fill-rule="evenodd"/><path fill="#ffffff" d="m93.71916 327.94745l0 0c0 -4.767578 3.8648987 -8.632477 8.632492 -8.632477l190.861 0c2.2894897 0 4.485199 0.90948486 6.1040955 2.5283813c1.6188965 1.618927 2.5284119 3.8146362 2.5284119 6.1040955l0 19.175964c0 4.767578 -3.8648987 8.632507 -8.632507 8.632507l-190.861 0c-4.7675934 0 -8.632492 -3.8649292 -8.632492 -8.632507z" fill-rule="evenodd"/><path fill="#ef959d" d="m236.14174 123.15223l0 0c0 -4.3573914 3.532364 -7.889763 7.8897552 -7.889763l37.007874 0c2.0924988 0 4.099304 0.8312378 5.5789185 2.3108597c1.4796143 1.4796143 2.310852 3.486412 2.310852 5.578903l0 0l0 0c0 4.357399 -3.5323792 7.889763 -7.8897705 7.889763l-37.007874 0c-4.3573914 0 -7.8897552 -3.532364 -7.8897552 -7.889763z" fill-rule="evenodd"/><path fill="#ef959d" d="m236.14174 166.02887l0 0c0 -4.3573914 3.532364 -7.8897552 7.8897552 -7.8897552l37.007874 0c2.0924988 0 4.099304 0.8312378 5.5789185 2.310852c1.4796143 1.4796143 2.310852 3.4864044 2.310852 5.578903l0 0l0 0c0 4.3573914 -3.5323792 7.8897705 -7.8897705 7.8897705l-37.007874 0c-4.3573914 0 -7.8897552 -3.5323792 -7.8897552 -7.8897705z" fill-rule="evenodd"/><path fill="#ef959d" d="m236.14174 208.90552l0 0c0 -4.3574066 3.532364 -7.8897705 7.8897552 -7.8897705l37.007874 0c2.0924988 0 4.099304 0.8312378 5.5789185 2.310852c1.4796143 1.4796295 2.310852 3.4864197 2.310852 5.5789185l0 0l0 0c0 4.3573914 -3.5323792 7.8897552 -7.8897705 7.8897552l-37.007874 0c-4.3573914 0 -7.8897552 -3.532364 -7.8897552 -7.8897552z" fill-rule="evenodd"/><path fill="#ef959d" d="m236.14174 251.78215l0 0c0 -4.3573914 3.532364 -7.8897552 7.8897552 -7.8897552l37.007874 0c2.0924988 0 4.099304 0.8312378 5.5789185 2.310852c1.4796143 1.4796143 2.310852 3.4864044 2.310852 5.578903l0 0l0 0c0 4.3574066 -3.5323792 7.8897552 -7.8897705 7.8897552l-37.007874 0c-4.3573914 0 -7.8897552 -3.5323486 -7.8897552 -7.8897552z" fill-rule="evenodd"/><path fill="#ef959d" d="m236.14174 294.65878l0 0c0 -4.3573914 3.532364 -7.88974 7.8897552 -7.88974l37.007874 0c2.0924988 0 4.099304 0.8312378 5.5789185 2.310852c1.4796143 1.4796143 2.310852 3.4863892 2.310852 5.578888l0 0l0 0c0 4.3573914 -3.5323792 7.8897705 -7.8897705 7.8897705l-37.007874 0c-4.3573914 0 -7.8897552 -3.5323792 -7.8897552 -7.8897705z" fill-rule="evenodd"/><path fill="#ef959d" d="m236.14174 337.53543l0 0c0 -4.3573914 3.532364 -7.8897705 7.8897552 -7.8897705l37.007874 0c2.0924988 0 4.099304 0.8312378 5.5789185 2.310852c1.4796143 1.4796448 2.310852 3.4864197 2.310852 5.5789185l0 0l0 0c0 4.3573914 -3.5323792 7.8897705 -7.8897705 7.8897705l-37.007874 0c-4.3573914 0 -7.8897552 -3.5323792 -7.8897552 -7.8897705z" fill-rule="evenodd"/><path fill="#a5e4e1" d="m93.71916 377.44833l0 0c0 -3.1221008 2.53096 -5.6530457 5.6530533 -5.6530457l52.91436 0c1.4992828 0 2.9371643 0.59558105 3.9973145 1.6557312c1.0601501 1.0601501 1.6557465 2.4980164 1.6557465 3.9973145l0 17.701752c0 3.1221008 -2.53096 5.653076 -5.653061 5.653076l-52.91436 0c-3.1220932 0 -5.6530533 -2.5309753 -5.6530533 -5.653076z" fill-rule="evenodd"/><path fill="#a5e4e1" d="m165.67842 377.44833l0 0c0 -3.1221008 2.53096 -5.6530457 5.653061 -5.6530457l52.914352 0c1.4992828 0 2.9371643 0.59558105 3.9973145 1.6557312c1.0601501 1.0601501 1.6557465 2.4980164 1.6557465 3.9973145l0 17.701752c0 3.1221008 -2.53096 5.653076 -5.653061 5.653076l-52.914352 0c-3.1221008 0 -5.653061 -2.5309753 -5.653061 -5.653076z" fill-rule="evenodd"/><path fill="#a5e4e1" d="m237.63768 377.93982l0 0c0 -3.1221008 2.53096 -5.653076 5.653061 -5.653076l52.914368 0c1.4992676 0 2.9371643 0.5956116 3.9973145 1.6557617c1.0601501 1.0601501 1.6557312 2.4980164 1.6557312 3.9973145l0 17.701752c0 3.1221008 -2.5309753 5.6530457 -5.6530457 5.6530457l-52.914368 0c-3.1221008 0 -5.653061 -2.5309448 -5.653061 -5.6530457z" fill-rule="evenodd"/><path fill="#efefef" d="m328.87402 109.260895l0 0c0 -8.21817 6.66214 -14.880318 14.88031 -14.880318l518.0189 0c3.9464722 0 7.7313232 1.5677414 10.521973 4.358345c2.7905884 2.790596 4.3583374 6.5754623 4.3583374 10.521973l0 294.99527c0 8.21817 -6.6621704 14.88031 -14.88031 14.88031l-518.0189 0c-8.21817 0 -14.88031 -6.66214 -14.88031 -14.88031z" fill-rule="evenodd"/><path fill="#ffffff" d="m339.91602 115.2964l0 0c0 -5.7242355 4.6404114 -10.364647 10.364624 -10.364647l236.15259 0c2.7489014 0 5.385193 1.0919876 7.3289185 3.035736c1.9437866 1.9437485 3.0357666 4.58004 3.0357666 7.328911l0 58.577805c0 5.724228 -4.640442 10.364639 -10.364685 10.364639l-236.15259 0c-5.7242126 0 -10.364624 -4.6404114 -10.364624 -10.364639z" fill-rule="evenodd"/><path fill="#efefef" d="m353.15747 144.5853l0 0c0 -14.576828 11.816864 -26.393692 26.393707 -26.393692l0 0c7.000061 0 13.713379 2.780754 18.663177 7.73053c4.949768 4.9497833 7.73053 11.663116 7.73053 18.663162l0 0c0 14.576843 -11.816864 26.393707 -26.393707 26.393707l0 0c-14.576843 0 -26.393707 -11.816864 -26.393707 -26.393707z" fill-rule="evenodd"/><path fill="#b7b7b7" d="m418.0735 126.08137l0 0c0 -4.357399 3.5323792 -7.889763 7.8897705 -7.889763l87.1496 0c2.0925293 0 4.099304 0.8312378 5.5789185 2.310852c1.4796143 1.4796219 2.310852 3.486412 2.310852 5.578911l0 0l0 0c0 4.357399 -3.5323486 7.889763 -7.8897705 7.889763l-87.1496 0c-4.3573914 0 -7.8897705 -3.532364 -7.8897705 -7.889763z" fill-rule="evenodd"/><path fill="#efefef" d="m418.0735 149.26247l0 0c0 -4.3573914 3.5323792 -7.8897705 7.8897705 -7.8897705l138.96063 0c2.0924683 0 4.099304 0.83125305 5.5789185 2.3108673c1.4796143 1.4796143 2.310852 3.4864044 2.310852 5.578903l0 0l0 0c0 4.3573914 -3.5323486 7.8897705 -7.8897705 7.8897705l-138.96063 0c-4.3573914 0 -7.8897705 -3.5323792 -7.8897705 -7.8897705z" fill-rule="evenodd"/><path fill="#ffffff" d="m608.1732 114.63933l0 0c0 -5.3613434 4.3462524 -9.707573 9.707581 -9.707573l237.46674 0c2.574646 0 5.043762 1.0227585 6.864319 2.8432846c1.8204956 1.8205185 2.8432617 4.2896805 2.8432617 6.8642883l0 281.75024c0 5.361328 -4.3462524 9.70755 -9.707581 9.70755l-237.46674 0c-5.361328 0 -9.707581 -4.346222 -9.707581 -9.70755z" fill-rule="evenodd"/><path fill="#ffffff" d="m341.0971 205.00629l0 0c0 -4.9464874 4.009918 -8.956421 8.956421 -8.956421l238.96906 0c2.3753662 0 4.6535034 0.9436188 6.33313 2.6232758c1.6796875 1.679657 2.623291 3.9577484 2.623291 6.333145l0 192.1344c0 4.9465027 -4.0099487 8.956421 -8.956421 8.956421l-238.96906 0c-4.9465027 0 -8.956421 -4.009918 -8.956421 -8.956421z" fill-rule="evenodd"/><path fill="#efefef" d="m82.685036 442.2311l0 0c0 -5.2938843 4.2915573 -9.585449 9.585457 -9.585449l211.03383 0c2.5422058 0 4.980316 1.0098877 6.7779236 2.8075256c1.7976379 1.7976074 2.8075256 4.235718 2.8075256 6.7779236l0 69.96298c0 5.2938843 -4.291565 9.585449 -9.585449 9.585449l-211.03383 0c-5.2938995 0 -9.585457 -4.291565 -9.585457 -9.585449z" fill-rule="evenodd"/><path fill="#ffffff" d="m91.25197 447.971l0 0c0 -3.2107239 2.6028137 -5.8135376 5.8135376 -5.8135376l201.4438 0c1.5418396 0 3.0205383 0.6125183 4.110779 1.7027588c1.0902405 1.0902405 1.7027588 2.5689392 1.7027588 4.110779l0 58.483154c0 3.2107544 -2.6028137 5.8135376 -5.8135376 5.8135376l-201.4438 0c-3.2107239 0 -5.8135376 -2.6027832 -5.8135376 -5.8135376z" fill-rule="evenodd"/><path fill="#b7b7b7" d="m107.75853 465.43832l0 0c0 -4.3573914 3.5323715 -7.8897705 7.889763 -7.8897705l87.149605 0c2.0924988 0 4.099289 0.8312378 5.578903 2.310852c1.4796295 1.4796143 2.3108673 3.4864197 2.3108673 5.5789185l0 0l0 0c0 4.3573914 -3.532364 7.8897705 -7.8897705 7.8897705l-87.149605 0c-4.3573914 0 -7.889763 -3.5323792 -7.889763 -7.8897705z" fill-rule="evenodd"/><path fill="#efefef" d="m107.75853 488.61942l0 0c0 -4.3573914 3.5323715 -7.8897705 7.889763 -7.8897705l138.96063 0c2.0924988 0 4.099304 0.8312683 5.5789185 2.3108826c1.4796143 1.4796143 2.310852 3.4863892 2.310852 5.578888l0 0l0 0c0 4.3573914 -3.5323792 7.8897705 -7.8897705 7.8897705l-138.96063 0c-4.3573914 0 -7.889763 -3.5323792 -7.889763 -7.8897705z" fill-rule="evenodd"/><path fill="#a5e4e1" d="m328.87402 457.8085l0 0c0 -8.643829 7.007202 -15.6510315 15.651001 -15.6510315l97.51688 0c4.1509094 0 8.131805 1.6489563 11.066925 4.584076c2.9351501 2.9351501 4.584076 6.916046 4.584076 11.066956l0 5.138916c0 8.643799 -7.007202 15.651001 -15.651001 15.651001l-97.51688 0c-8.643799 0 -15.651001 -7.007202 -15.651001 -15.651001z" fill-rule="evenodd"/><path fill="#fcddbc" d="m473.67715 457.8085l0 0c0 -8.643829 7.007202 -15.6510315 15.6510315 -15.6510315l97.516846 0c4.15094 0 8.131836 1.6489563 11.066956 4.584076c2.9351196 2.9351501 4.5840454 6.916046 4.5840454 11.066956l0 5.138916c0 8.643799 -7.007141 15.651001 -15.651001 15.651001l-97.516846 0c-8.643829 0 -15.6510315 -7.007202 -15.6510315 -15.651001z" fill-rule="evenodd"/><path fill="#b7b7b7" d="m623.8294 126.08137l0 0c0 -4.357399 3.5323486 -7.889763 7.8897705 -7.889763l87.1496 0c2.0924683 0 4.099304 0.8312378 5.5789185 2.310852c1.4796143 1.4796219 2.310852 3.486412 2.310852 5.578911l0 0l0 0c0 4.357399 -3.5324097 7.889763 -7.8897705 7.889763l-87.1496 0c-4.357422 0 -7.8897705 -3.532364 -7.8897705 -7.889763z" fill-rule="evenodd"/><path fill="#b7b7b7" d="m623.8294 155.69817l0 0c0 -4.3574066 3.5323486 -7.8897705 7.8897705 -7.8897705l77.07086 0c2.0924683 0 4.099304 0.8312378 5.5789185 2.3108673c1.4796143 1.4796143 2.310852 3.4864044 2.310852 5.578903l0 0l0 0c0 4.3573914 -3.5324097 7.8897552 -7.8897705 7.8897552l-77.07086 0c-4.357422 0 -7.8897705 -3.532364 -7.8897705 -7.8897552z" fill-rule="evenodd"/><path fill="#b7b7b7" d="m623.8294 185.31496l0 0c0 -4.3573914 3.5323486 -7.8897552 7.8897705 -7.8897552l113.03937 0c2.0924683 0 4.099243 0.8312378 5.5789185 2.310852c1.4796143 1.4796143 2.310852 3.4864044 2.310852 5.578903l0 0l0 0c0 4.3574066 -3.5324097 7.8897705 -7.8897705 7.8897705l-113.03937 0c-4.357422 0 -7.8897705 -3.532364 -7.8897705 -7.8897705z" fill-rule="evenodd"/><path fill="#b7b7b7" d="m623.8294 214.93176l0 0c0 -4.3574066 3.5323486 -7.8897705 7.8897705 -7.8897705l113.03937 0c2.0924683 0 4.099243 0.8312378 5.5789185 2.3108673c1.4796143 1.4796143 2.310852 3.4864044 2.310852 5.578903l0 0l0 0c0 4.3573914 -3.5324097 7.8897552 -7.8897705 7.8897552l-113.03937 0c-4.357422 0 -7.8897705 -3.532364 -7.8897705 -7.8897552z" fill-rule="evenodd"/><path fill="#b7b7b7" d="m623.8294 244.54855l0 0c0 -4.3573914 3.5323486 -7.8897552 7.8897705 -7.8897552l57.88977 0c2.0924683 0 4.099243 0.8312378 5.5788574 2.310852c1.4796143 1.4796143 2.310852 3.4864044 2.310852 5.578903l0 0l0 0c0 4.3574066 -3.5323486 7.8897705 -7.8897095 7.8897705l-57.88977 0c-4.357422 0 -7.8897705 -3.532364 -7.8897705 -7.8897705z" fill-rule="evenodd"/><path fill="#b7b7b7" d="m623.8294 274.16534l0 0c0 -4.3573914 3.5323486 -7.88974 7.8897705 -7.88974l82.834656 0c2.0924683 0 4.099243 0.8312378 5.5788574 2.310852c1.4796143 1.4796143 2.310852 3.4863892 2.310852 5.578888l0 0l0 0c0 4.3573914 -3.5323486 7.8897705 -7.8897095 7.8897705l-82.834656 0c-4.357422 0 -7.8897705 -3.5323792 -7.8897705 -7.8897705z" fill-rule="evenodd"/><path fill="#b7b7b7" d="m623.8294 303.78217l0 0c0 -4.357422 3.5323486 -7.8897705 7.8897705 -7.8897705l65.543274 0c2.0925293 0 4.099304 0.8312378 5.5789185 2.310852c1.4796143 1.4796143 2.310852 3.4864197 2.310852 5.5789185l0 0l0 0c0 4.3573914 -3.5323486 7.88974 -7.8897705 7.88974l-65.543274 0c-4.357422 0 -7.8897705 -3.5323486 -7.8897705 -7.88974z" fill-rule="evenodd"/><path fill="#b7b7b7" d="m623.8294 333.39896l0 0c0 -4.3573914 3.5323486 -7.8897705 7.8897705 -7.8897705l94.33069 0c2.0924683 0 4.099304 0.8312378 5.5789185 2.310852c1.4796143 1.4796143 2.310852 3.4864197 2.310852 5.5789185l0 0l0 0c0 4.3573914 -3.5323486 7.8897705 -7.8897705 7.8897705l-94.33069 0c-4.357422 0 -7.8897705 -3.5323792 -7.8897705 -7.8897705z" fill-rule="evenodd"/><path fill="#b7b7b7" d="m623.8294 363.01575l0 0c0 -4.3573914 3.5323486 -7.8897705 7.8897705 -7.8897705l113.03937 0c2.0924683 0 4.099243 0.8312378 5.5789185 2.310852c1.4796143 1.4796448 2.310852 3.4864197 2.310852 5.5789185l0 0l0 0c0 4.3573914 -3.5324097 7.8897705 -7.8897705 7.8897705l-113.03937 0c-4.357422 0 -7.8897705 -3.5323792 -7.8897705 -7.8897705z" fill-rule="evenodd"/><path fill="#efefef" d="m782.85565 126.53018l0 0c0 -4.3573914 3.5323486 -7.889763 7.8897705 -7.889763l53.606262 0c2.0925293 0 4.099304 0.8312378 5.5789185 2.3108597c1.4796143 1.4796143 2.310852 3.486412 2.310852 5.578903l0 0l0 0c0 4.3573914 -3.5323486 7.8897705 -7.8897705 7.8897705l-53.606262 0c-4.357422 0 -7.8897705 -3.5323792 -7.8897705 -7.8897705z" fill-rule="evenodd"/><path fill="#efefef" d="m782.85565 155.69817l0 0c0 -4.3574066 3.5323486 -7.8897705 7.8897705 -7.8897705l53.606262 0c2.0925293 0 4.099304 0.8312378 5.5789185 2.3108673c1.4796143 1.4796143 2.310852 3.4864044 2.310852 5.578903l0 0l0 0c0 4.3573914 -3.5323486 7.8897552 -7.8897705 7.8897552l-53.606262 0c-4.357422 0 -7.8897705 -3.532364 -7.8897705 -7.8897552z" fill-rule="evenodd"/><path fill="#efefef" d="m782.85565 184.86613l0 0c0 -4.3573914 3.5323486 -7.8897552 7.8897705 -7.8897552l53.606262 0c2.0925293 0 4.099304 0.8312378 5.5789185 2.310852c1.4796143 1.4796295 2.310852 3.4864197 2.310852 5.578903l0 0l0 0c0 4.3574066 -3.5323486 7.8897705 -7.8897705 7.8897705l-53.606262 0c-4.357422 0 -7.8897705 -3.532364 -7.8897705 -7.8897705z" fill-rule="evenodd"/><path fill="#efefef" d="m782.85565 214.03412l0 0c0 -4.3573914 3.5323486 -7.8897552 7.8897705 -7.8897552l53.606262 0c2.0925293 0 4.099304 0.8312378 5.5789185 2.310852c1.4796143 1.4796143 2.310852 3.4864044 2.310852 5.578903l0 0l0 0c0 4.3573914 -3.5323486 7.8897705 -7.8897705 7.8897705l-53.606262 0c-4.357422 0 -7.8897705 -3.5323792 -7.8897705 -7.8897705z" fill-rule="evenodd"/><path fill="#efefef" d="m782.85565 243.2021l0 0c0 -4.3574066 3.5323486 -7.8897705 7.8897705 -7.8897705l53.606262 0c2.0925293 0 4.099304 0.8312378 5.5789185 2.3108673c1.4796143 1.4796143 2.310852 3.4864044 2.310852 5.578903l0 0l0 0c0 4.3573914 -3.5323486 7.8897552 -7.8897705 7.8897552l-53.606262 0c-4.357422 0 -7.8897705 -3.532364 -7.8897705 -7.8897552z" fill-rule="evenodd"/><path fill="#efefef" d="m782.85565 272.3701l0 0c0 -4.3573914 3.5323486 -7.8897705 7.8897705 -7.8897705l53.606262 0c2.0925293 0 4.099304 0.8312378 5.5789185 2.310852c1.4796143 1.4796143 2.310852 3.4864197 2.310852 5.5789185l0 0l0 0c0 4.3573914 -3.5323486 7.8897705 -7.8897705 7.8897705l-53.606262 0c-4.357422 0 -7.8897705 -3.5323792 -7.8897705 -7.8897705z" fill-rule="evenodd"/><path fill="#efefef" d="m782.85565 301.53806l0 0c0 -4.3573914 3.5323486 -7.8897705 7.8897705 -7.8897705l53.606262 0c2.0925293 0 4.099304 0.8312378 5.5789185 2.3108826c1.4796143 1.4796143 2.310852 3.4863892 2.310852 5.578888l0 0l0 0c0 4.3573914 -3.5323486 7.8897705 -7.8897705 7.8897705l-53.606262 0c-4.357422 0 -7.8897705 -3.5323792 -7.8897705 -7.8897705z" fill-rule="evenodd"/><path fill="#efefef" d="m782.85565 330.70602l0 0c0 -4.3573914 3.5323486 -7.88974 7.8897705 -7.88974l53.606262 0c2.0925293 0 4.099304 0.8312378 5.5789185 2.310852c1.4796143 1.4796143 2.310852 3.4864197 2.310852 5.578888l0 0l0 0c0 4.357422 -3.5323486 7.8897705 -7.8897705 7.8897705l-53.606262 0c-4.357422 0 -7.8897705 -3.5323486 -7.8897705 -7.8897705z" fill-rule="evenodd"/><path fill="#efefef" d="m782.85565 359.87402l0 0c0 -4.3573914 3.5323486 -7.8897705 7.8897705 -7.8897705l53.606262 0c2.0925293 0 4.099304 0.8312378 5.5789185 2.310852c1.4796143 1.4796143 2.310852 3.4864197 2.310852 5.5789185l0 0l0 0c0 4.3573914 -3.5323486 7.8897705 -7.8897705 7.8897705l-53.606262 0c-4.357422 0 -7.8897705 -3.5323792 -7.8897705 -7.8897705z" fill-rule="evenodd"/><path fill="#a5e4e1" d="m353.15747 219.23622l0 0c0 -4.3573914 3.5323792 -7.8897705 7.8897705 -7.8897705l87.1496 0c2.0924988 0 4.099304 0.83125305 5.5789185 2.3108673c1.4796143 1.4796143 2.310852 3.4864044 2.310852 5.578903l0 0l0 0c0 4.3573914 -3.5323486 7.8897705 -7.8897705 7.8897705l-87.1496 0c-4.3573914 0 -7.8897705 -3.5323792 -7.8897705 -7.8897705z" fill-rule="evenodd"/><path fill="#efefef" d="m353.15683 244.08661l0 0c0 -4.3573914 3.5323486 -7.8897552 7.88974 -7.8897552l57.88977 0c2.0924988 0 4.099304 0.8312378 5.5789185 2.310852c1.4796143 1.4796143 2.310852 3.4864197 2.310852 5.578903l0 0l0 0c0 4.3574066 -3.5323792 7.8897705 -7.8897705 7.8897705l-57.88977 0c-4.3573914 0 -7.88974 -3.532364 -7.88974 -7.8897705z" fill-rule="evenodd"/><path fill="#fcddbc" d="m498.65588 220.76169l0 0c0 -5.2001038 4.215515 -9.415619 9.415619 -9.415619l62.491608 0c2.4971313 0 4.892029 0.99198914 6.657837 2.7577667c1.7657471 1.7657776 2.7577515 4.160675 2.7577515 6.657852l0 29.483719c0 5.2001038 -4.215515 9.415604 -9.415588 9.415604l-62.491608 0c-5.2001038 0 -9.415619 -4.2155 -9.415619 -9.415604z" fill-rule="evenodd"/><path fill="#efefef" d="m353.15884 284.3281l0 0c0 -4.357422 3.5323792 -7.8897705 7.8897705 -7.8897705l211.05508 0c2.0925293 0 4.099304 0.8312378 5.5789185 2.310852c1.4796143 1.4796143 2.310852 3.4864197 2.310852 5.5789185l0 0l0 0c0 4.3573914 -3.5323486 7.88974 -7.8897705 7.88974l-211.05508 0c-4.3573914 0 -7.8897705 -3.5323486 -7.8897705 -7.88974z" fill-rule="evenodd"/><path fill="#efefef" d="m353.15884 312.2402l0 0c0 -4.3573914 3.5323792 -7.88974 7.8897705 -7.88974l211.05508 0c2.0925293 0 4.099304 0.8312378 5.5789185 2.310852c1.4796143 1.4796143 2.310852 3.4863892 2.310852 5.578888l0 0l0 0c0 4.3573914 -3.5323486 7.8897705 -7.8897705 7.8897705l-211.05508 0c-4.3573914 0 -7.8897705 -3.5323792 -7.8897705 -7.8897705z" fill-rule="evenodd"/><path fill="#efefef" d="m353.15884 340.1536l0 0c0 -4.3573914 3.5323792 -7.8897705 7.8897705 -7.8897705l211.05508 0c2.0925293 0 4.099304 0.8312378 5.5789185 2.3108826c1.4796143 1.4796143 2.310852 3.4863892 2.310852 5.578888l0 0l0 0c0 4.3573914 -3.5323486 7.8897705 -7.8897705 7.8897705l-211.05508 0c-4.3573914 0 -7.8897705 -3.5323792 -7.8897705 -7.8897705z" fill-rule="evenodd"/><path fill="#efefef" d="m353.15964 368.06824l0 0c0 -4.3573914 3.5323792 -7.8897705 7.8897705 -7.8897705l128.44095 0c2.0924988 0 4.0992737 0.8312378 5.578888 2.3108826c1.4796448 1.4796143 2.3108826 3.4863892 2.3108826 5.578888l0 0l0 0c0 4.3573914 -3.5323792 7.8897705 -7.8897705 7.8897705l-128.44095 0c-4.3573914 0 -7.8897705 -3.5323792 -7.8897705 -7.8897705z" fill-rule="evenodd"/><path fill="#fcddbc" d="m31.579052 14.892466l0 0c0 -2.1193085 1.7180367 -3.837347 3.8373451 -3.837347l15.34893 0l0 0c1.0177269 0 1.9937706 0.4042902 2.7134132 1.1239328c0.71964264 0.7196417 1.1239319 1.6956863 1.1239319 2.7134142l0 18.026094c0 2.1193085 -1.7180367 3.8373451 -3.8373451 3.8373451l-15.34893 0c-2.1193085 0 -3.8373451 -1.7180367 -3.8373451 -3.8373451z" fill-rule="evenodd"/><path fill="#d9d9d9" d="m27.56168 23.914318l0 0c0 -0.826252 0.66980934 -1.4960632 1.4960632 -1.4960632l5.228348 0l0 0c0.3967781 0 0.7773094 0.15762138 1.0578728 0.43818665c0.28056717 0.28056717 0.43819046 0.6610966 0.43819046 1.0578766l0 0l0 0c0 0.8262539 -0.66981125 1.4960632 -1.4960632 1.4960632l-5.228348 0c-0.8262539 0 -1.4960632 -0.66980934 -1.4960632 -1.4960632z" fill-rule="evenodd"/><path fill="#d9d9d9" d="m27.56168 30.56401l0 0c0 -0.826252 0.66980934 -1.4960632 1.4960632 -1.4960632l5.228348 0l0 0c0.3967781 0 0.7773094 0.15762138 1.0578728 0.43818665c0.28056717 0.28056717 0.43819046 0.6610966 0.43819046 1.0578766l0 0l0 0c0 0.8262539 -0.66981125 1.4960632 -1.4960632 1.4960632l-5.228348 0c-0.8262539 0 -1.4960632 -0.66980934 -1.4960632 -1.4960632z" fill-rule="evenodd"/><path fill="#d9d9d9" d="m27.56168 17.264626l0 0c0 -0.826252 0.66980934 -1.4960632 1.4960632 -1.4960632l5.228348 0l0 0c0.3967781 0 0.7773094 0.15762043 1.0578728 0.43818665c0.28056717 0.28056717 0.43819046 0.6610966 0.43819046 1.0578766l0 0l0 0c0 0.8262539 -0.66981125 1.4960632 -1.4960632 1.4960632l-5.228348 0c-0.8262539 0 -1.4960632 -0.66980934 -1.4960632 -1.4960632z" fill-rule="evenodd"/></g></svg>